<?xml version="1.0" encoding="utf-8"?>
<!-- Generator: Adobe Illustrator 25.2.3, SVG Export Plug-In . SVG Version: 6.00 Build 0)  -->
<svg version="1.1" id="Layer_1" xmlns="http://www.w3.org/2000/svg" xmlns:xlink="http://www.w3.org/1999/xlink" x="0px" y="0px"
	 viewBox="0 0 598.1 98.6" style="enable-background:new 0 0 598.1 98.6;" xml:space="preserve">
<style type="text/css">
	.st0{fill:#FFFFFF;}
	.st1{fill:url(#SVGID_1_);}
	.st2{fill:url(#SVGID_2_);}
	.st3{fill:url(#SVGID_3_);}
	.st4{fill:url(#SVGID_4_);}
	.st5{fill:url(#SVGID_5_);}
	.st6{fill:url(#SVGID_6_);}
	.st7{fill:url(#SVGID_7_);}
	.st8{fill:url(#SVGID_8_);}
	.st9{fill:url(#SVGID_9_);}
	.st10{fill:url(#SVGID_10_);}
	.st11{fill:url(#SVGID_11_);}
	.st12{fill:url(#SVGID_12_);}
	.st13{fill:url(#SVGID_13_);}
	.st14{fill:url(#SVGID_14_);}
	.st15{fill:url(#SVGID_15_);}
	.st16{fill:url(#SVGID_16_);}
	.st17{fill:url(#SVGID_17_);}
	.st18{fill:url(#SVGID_18_);}
	.st19{fill:url(#SVGID_19_);}
	.st20{fill:url(#SVGID_20_);}
	.st21{fill:url(#SVGID_21_);}
	.st22{fill:url(#SVGID_22_);}
	.st23{fill:url(#SVGID_23_);}
	.st24{fill:url(#SVGID_24_);}
	.st25{fill:url(#SVGID_25_);}
	.st26{fill:url(#SVGID_26_);}
	.st27{fill:url(#SVGID_27_);}
	.st28{fill:url(#SVGID_28_);}
	.st29{fill:url(#SVGID_29_);}
	.st30{fill:url(#SVGID_30_);}
	.st31{fill:url(#SVGID_31_);}
	.st32{fill:url(#SVGID_32_);}
	.st33{fill:url(#SVGID_33_);}
	.st34{fill:url(#SVGID_34_);}
	.st35{fill:url(#SVGID_35_);}
	.st36{fill:url(#SVGID_36_);}
	.st37{fill:url(#SVGID_37_);}
	.st38{fill:url(#SVGID_38_);}
	.st39{fill:url(#SVGID_39_);}
	.st40{fill:url(#SVGID_40_);}
	.st41{fill:url(#SVGID_41_);}
	.st42{fill:url(#SVGID_42_);}
	.st43{fill:url(#SVGID_43_);}
	.st44{fill:url(#SVGID_44_);}
	.st45{fill:url(#SVGID_45_);}
	.st46{fill:url(#SVGID_46_);}
	.st47{fill:url(#SVGID_47_);}
	.st48{fill:url(#SVGID_48_);}
	.st49{fill:url(#SVGID_49_);}
	.st50{fill:url(#SVGID_50_);}
	.st51{fill:url(#SVGID_51_);}
	.st52{fill:url(#SVGID_52_);}
	.st53{fill:url(#SVGID_53_);}
	.st54{fill:url(#SVGID_54_);}
	.st55{fill:url(#SVGID_55_);}
	.st56{fill:url(#SVGID_56_);}
	.st57{fill:url(#SVGID_57_);}
	.st58{fill:url(#SVGID_58_);}
	.st59{fill:url(#SVGID_59_);}
	.st60{fill:url(#SVGID_60_);}
	.st61{fill:url(#SVGID_61_);}
	.st62{fill:url(#SVGID_62_);}
	.st63{fill:url(#SVGID_63_);}
	.st64{fill:url(#SVGID_64_);}
	.st65{fill:url(#SVGID_65_);}
	.st66{fill:url(#SVGID_66_);}
	.st67{fill:url(#SVGID_67_);}
	.st68{fill:url(#SVGID_68_);}
	.st69{fill:url(#SVGID_69_);}
	.st70{fill:url(#SVGID_70_);}
	.st71{fill:url(#SVGID_71_);}
	.st72{fill:url(#SVGID_72_);}
	.st73{fill:url(#SVGID_73_);}
	.st74{fill:url(#SVGID_74_);}
	.st75{fill:url(#SVGID_75_);}
	.st76{fill:url(#SVGID_76_);}
	.st77{fill:url(#SVGID_77_);}
	.st78{fill:url(#SVGID_78_);}
	.st79{fill:url(#SVGID_79_);}
	.st80{fill:url(#SVGID_80_);}
	.st81{fill:url(#SVGID_81_);}
	.st82{fill:url(#SVGID_82_);}
	.st83{fill:url(#SVGID_83_);}
	.st84{fill:url(#SVGID_84_);}
	.st85{fill:url(#SVGID_85_);}
	.st86{fill:url(#SVGID_86_);}
	.st87{fill:url(#SVGID_87_);}
	.st88{fill:url(#SVGID_88_);}
	.st89{fill:url(#SVGID_89_);}
	.st90{fill:url(#SVGID_90_);}
	.st91{fill:url(#SVGID_91_);}
	.st92{fill:url(#SVGID_92_);}
	.st93{fill:url(#SVGID_93_);}
	.st94{fill:url(#SVGID_94_);}
	.st95{fill:url(#SVGID_95_);}
	.st96{fill:url(#SVGID_96_);}
	.st97{fill:url(#SVGID_97_);}
	.st98{fill:url(#SVGID_98_);}
	.st99{fill:url(#SVGID_99_);}
	.st100{fill:url(#SVGID_100_);}
</style>
<g>
	<g>
		<path class="st0" d="M82.5,23L45.6,1.7L42.7,0l-2.9,1.7L2.9,23L0,24.7V28v42.5V74l2.9,1.7l36.8,21.3l2.9,1.7l2.9-1.7l36.8-21.3
			l2.9-1.7v-3.4V28v-3.4L82.5,23z M83.2,29.1v40.3v3.2l-2.8,1.6L45.5,94.4L42.7,96l-2.8-1.6L5,74.3l-2.8-1.6v-3.2V29.1v-3.2L5,24.3
			L39.9,4.2l2.8-1.6l2.8,1.6l34.9,20.2l2.8,1.6V29.1z"/>
		<polygon points="7.8,32.8 7.8,68.2 26.7,57.2 		"/>
		<polygon points="77.6,68.2 77.6,32.8 58.7,57.2 		"/>
		<polygon points="44.5,75.6 43.8,76.4 43.8,89 76.5,70.1 57.3,59 		"/>
		<polygon points="7.8,29.1 7.8,29.1 7.8,29.1 		"/>
		<polygon points="29.9,57.7 30.1,57.9 42.7,74.2 34.8,64 		"/>
		<polygon points="28.1,59 8.9,70.1 41.6,89 41.6,76.4 40.9,75.6 		"/>
		<path d="M45.5,4.2l-2.8-1.6l-2.8,1.6L5,24.3l-2.8,1.6v3.2v40.3v3.2L5,74.3l34.9,20.2l2.8,1.6l2.8-1.6l34.9-20.2l2.8-1.6v-3.2V29.1
			v-3.2l-2.8-1.6L45.5,4.2z M79.8,29.1v40.3v1.3l-1.1,0.6L43.8,91.5l-1.1,0.6l-1.1-0.6L6.7,71.4l-1.1-0.6v-1.3V29.1v-1.3l1.1-0.6
			L41.6,7.1l1.1-0.6l1.1,0.6l34.9,20.2l1.1,0.6V29.1z"/>
		<polygon points="56.7,56.1 77.6,29.1 55.9,57.2 		"/>
		<polygon points="75.3,27.8 42.7,9 10.1,27.8 42.7,44.4 		"/>
		<path class="st0" d="M43.8,7.1l-1.1-0.6l-1.1,0.6L6.7,27.2l-1.1,0.6v1.3v40.3v1.3l1.1,0.6l34.9,20.2l1.1,0.6l1.1-0.6l34.9-20.2
			l1.1-0.6v-1.3V29.1v-1.3l-1.1-0.6L43.8,7.1z M42.7,9l32.6,18.8L42.7,44.4L10.1,27.8L42.7,9z M41.6,89L8.9,70.1L28.1,59l12.8,16.6
			l0.6,0.8V89z M7.8,68.2V32.8l18.9,24.5L7.8,68.2z M43.8,89V76.4l0.6-0.8L57.3,59l19.2,11.1L43.8,89z M77.6,68.2L58.7,57.2
			l18.9-24.5V68.2z M56.7,56.1l-0.8,1.1l-13.2,17v0l0,0l0,0L30.1,57.9l-0.1-0.2L7.8,29.1l0,0l0,0l29.9,15.2l5,2.6l34.9-17.8
			L56.7,56.1z"/>
		<polygon points="37.7,44.4 7.8,29.1 7.8,29.1 		"/>
		<linearGradient id="SVGID_1_" gradientUnits="userSpaceOnUse" x1="7.7966" y1="36.7555" x2="77.619" y2="36.7555">
			<stop  offset="0" style="stop-color:#33994B"/>
			<stop  offset="0.3397" style="stop-color:#6FB64D"/>
			<stop  offset="1" style="stop-color:#A3C851"/>
		</linearGradient>
		<polygon class="st1" points="37.7,44.4 7.8,29.1 7.8,29.1 		"/>
		<polygon points="42.7,46.9 42.7,74.2 55.3,57.9 55.9,57.2 77.6,29.1 42.7,46.9 		"/>
		<linearGradient id="SVGID_2_" gradientUnits="userSpaceOnUse" x1="7.7965" y1="51.6632" x2="77.619" y2="51.6632">
			<stop  offset="0" style="stop-color:#33994B"/>
			<stop  offset="0.3397" style="stop-color:#6FB64D"/>
			<stop  offset="1" style="stop-color:#A3C851"/>
		</linearGradient>
		<polygon class="st2" points="42.7,46.9 42.7,74.2 55.3,57.9 55.9,57.2 77.6,29.1 42.7,46.9 		"/>
		<polygon points="34.8,64 42.7,74.2 42.7,74.2 		"/>
		<linearGradient id="SVGID_3_" gradientUnits="userSpaceOnUse" x1="7.7966" y1="69.1173" x2="77.619" y2="69.1173">
			<stop  offset="0" style="stop-color:#33994B"/>
			<stop  offset="0.3397" style="stop-color:#6FB64D"/>
			<stop  offset="1" style="stop-color:#A3C851"/>
		</linearGradient>
		<polygon class="st3" points="34.8,64 42.7,74.2 42.7,74.2 		"/>
		<polygon class="st0" points="42.7,74.2 42.7,74.2 42.7,74.2 		"/>
		<linearGradient id="SVGID_4_" gradientUnits="userSpaceOnUse" x1="42.6428" y1="74.189" x2="42.7727" y2="74.189">
			<stop  offset="0" style="stop-color:#33994B"/>
			<stop  offset="0.3397" style="stop-color:#6FB64D"/>
			<stop  offset="1" style="stop-color:#A3C851"/>
		</linearGradient>
		<polygon class="st4" points="42.7,74.2 42.7,74.2 42.7,74.2 		"/>
		<polygon class="st0" points="42.7,74.2 42.7,74.2 55.9,57.2 55.3,57.9 		"/>
		<linearGradient id="SVGID_5_" gradientUnits="userSpaceOnUse" x1="7.7966" y1="65.6742" x2="77.619" y2="65.6742">
			<stop  offset="0" style="stop-color:#33994B"/>
			<stop  offset="0.3397" style="stop-color:#6FB64D"/>
			<stop  offset="1" style="stop-color:#A3C851"/>
		</linearGradient>
		<polygon class="st5" points="42.7,74.2 42.7,74.2 55.9,57.2 55.3,57.9 		"/>
		<polygon points="7.8,29.1 7.8,29.1 28.7,56.1 29.9,57.7 34.8,64 		"/>
		
			<linearGradient id="SVGID_6_" gradientUnits="userSpaceOnUse" x1="-5150.0488" y1="74.189" x2="-5150.0488" y2="29.1374" gradientTransform="matrix(-1 0 0 1 -5128.7266 0)">
			<stop  offset="0" style="stop-color:#026839"/>
			<stop  offset="0.3795" style="stop-color:#33994B"/>
			<stop  offset="1" style="stop-color:#6FB64D"/>
		</linearGradient>
		<polygon class="st6" points="7.8,29.1 7.8,29.1 28.7,56.1 29.9,57.7 34.8,64 		"/>
		<polygon class="st0" points="42.7,46.9 37.7,44.4 42.7,46.9 		"/>
		
			<linearGradient id="SVGID_7_" gradientUnits="userSpaceOnUse" x1="-5168.9272" y1="74.189" x2="-5168.9272" y2="29.1374" gradientTransform="matrix(-1 0 0 1 -5128.7266 0)">
			<stop  offset="0" style="stop-color:#026839"/>
			<stop  offset="0.3795" style="stop-color:#33994B"/>
			<stop  offset="1" style="stop-color:#6FB64D"/>
		</linearGradient>
		<polygon class="st7" points="42.7,46.9 37.7,44.4 42.7,46.9 		"/>
		<polygon class="st0" points="7.8,29.1 7.8,29.1 29.9,57.7 28.7,56.1 		"/>
		
			<linearGradient id="SVGID_8_" gradientUnits="userSpaceOnUse" x1="-5147.5967" y1="74.189" x2="-5147.5967" y2="29.1374" gradientTransform="matrix(-1 0 0 1 -5128.7266 0)">
			<stop  offset="0" style="stop-color:#026839"/>
			<stop  offset="0.3795" style="stop-color:#33994B"/>
			<stop  offset="1" style="stop-color:#6FB64D"/>
		</linearGradient>
		<polygon class="st8" points="7.8,29.1 7.8,29.1 29.9,57.7 28.7,56.1 		"/>
		<polygon class="st0" points="42.7,74.2 42.7,74.2 42.7,74.2 		"/>
		
			<linearGradient id="SVGID_9_" gradientUnits="userSpaceOnUse" x1="-5171.4346" y1="74.189" x2="-5171.4346" y2="73.9291" gradientTransform="matrix(-1 0 0 1 -5128.7266 0)">
			<stop  offset="0" style="stop-color:#026839"/>
			<stop  offset="0.3795" style="stop-color:#33994B"/>
			<stop  offset="1" style="stop-color:#6FB64D"/>
		</linearGradient>
		<polygon class="st9" points="42.7,74.2 42.7,74.2 42.7,74.2 		"/>
		<polygon points="34.8,64 42.7,74.2 42.7,74.2 42.7,46.9 42.7,46.9 42.7,46.9 37.7,44.4 7.8,29.1 		"/>
		<linearGradient id="SVGID_10_" gradientUnits="userSpaceOnUse" x1="7.7967" y1="51.6633" x2="77.6188" y2="51.6633">
			<stop  offset="0" style="stop-color:#33994B"/>
			<stop  offset="0.3397" style="stop-color:#6FB64D"/>
			<stop  offset="1" style="stop-color:#A3C851"/>
		</linearGradient>
		<polygon class="st10" points="34.8,64 42.7,74.2 42.7,74.2 42.7,46.9 42.7,46.9 42.7,46.9 37.7,44.4 7.8,29.1 		"/>
		
			<linearGradient id="SVGID_11_" gradientUnits="userSpaceOnUse" x1="-5153.979" y1="74.189" x2="-5153.979" y2="29.1376" gradientTransform="matrix(-1 0 0 1 -5128.7266 0)">
			<stop  offset="0" style="stop-color:#026839"/>
			<stop  offset="0.3795" style="stop-color:#33994B"/>
			<stop  offset="1" style="stop-color:#6FB64D"/>
		</linearGradient>
		<polygon class="st11" points="34.8,64 42.7,74.2 42.7,74.2 42.7,46.9 42.7,46.9 42.7,46.9 37.7,44.4 7.8,29.1 		"/>
		<rect x="42.7" y="74.2" class="st0" width="0" height="0"/>
		<linearGradient id="SVGID_12_" gradientUnits="userSpaceOnUse" x1="42.6428" y1="74.1889" x2="42.7727" y2="74.1889">
			<stop  offset="0" style="stop-color:#33994B"/>
			<stop  offset="0.3397" style="stop-color:#6FB64D"/>
			<stop  offset="1" style="stop-color:#A3C851"/>
		</linearGradient>
		<rect x="42.7" y="74.2" class="st12" width="0" height="0"/>
		
			<linearGradient id="SVGID_13_" gradientUnits="userSpaceOnUse" x1="-5171.4346" y1="74.189" x2="-5171.4346" y2="74.0591" gradientTransform="matrix(-1 0 0 1 -5128.7266 0)">
			<stop  offset="0" style="stop-color:#026839"/>
			<stop  offset="0.3795" style="stop-color:#33994B"/>
			<stop  offset="1" style="stop-color:#6FB64D"/>
		</linearGradient>
		<rect x="42.7" y="74.2" class="st13" width="0" height="0"/>
	</g>
	<g>
		<g>
			<polygon points="138.6,53.2 151.9,53.2 151.9,45.6 138.6,45.6 138.6,40.1 152.6,40.1 152.6,32.2 128.8,32.2 128.8,67.1 
				153.5,67.1 153.5,59.2 138.6,59.2 			"/>
		</g>
		<g>
			<path d="M184.2,49.2c1.1-1.7,1.6-3.7,1.6-6.2c0-2-0.3-3.7-1-5.1c-0.7-1.4-1.7-2.5-2.9-3.4c-1.2-0.8-2.6-1.5-4.3-1.8
				c-1.6-0.4-3.4-0.6-5.3-0.6h-14.1v35h9.8V54.7h2.3l6.5,12.4h11l-8.2-14.3C181.6,52.1,183.1,50.8,184.2,49.2z M175.5,45.3
				c-0.3,0.5-0.6,0.9-1,1.2c-0.4,0.3-0.9,0.5-1.4,0.6c-0.5,0.1-1.1,0.2-1.6,0.2h-3.3v-7.2h3.3c1.2,0,2.2,0.2,3.1,0.7
				c0.9,0.4,1.3,1.3,1.3,2.6C175.9,44.1,175.8,44.8,175.5,45.3z"/>
		</g>
		<g>
			<rect x="189.9" y="32.2" width="10" height="35"/>
		</g>
		<g>
			<path d="M230.9,35.9c-1.8-1.4-3.9-2.3-6.2-2.9c-2.3-0.6-4.8-0.9-7.3-0.9h-13v35h13.3c2.5,0,4.9-0.3,7.2-1
				c2.3-0.7,4.4-1.7,6.2-3.2c1.8-1.4,3.2-3.3,4.3-5.5c1.1-2.2,1.6-4.8,1.6-7.9c0-3.3-0.5-6.1-1.6-8.3
				C234.1,39.1,232.7,37.3,230.9,35.9z M225.6,53.9c-0.5,1.2-1.2,2.2-2.1,2.9c-0.9,0.7-1.9,1.3-3.1,1.6c-1.2,0.3-2.4,0.5-3.7,0.5
				h-2.5V40.3h2.7c1.3,0,2.5,0.2,3.7,0.5c1.1,0.3,2.1,0.8,3,1.5c0.8,0.7,1.5,1.6,2,2.8c0.5,1.2,0.7,2.6,0.7,4.4
				C226.3,51.2,226.1,52.7,225.6,53.9z"/>
		</g>
		<g>
			<polygon points="109.1,53.5 101.3,32.1 91.3,32.1 104,67.2 114,67.2 126.9,32.1 116.9,32.1 			"/>
		</g>
		<g>
			<path d="M258.2,31.3c-10.2,0-18.4,8.2-18.4,18.4c0,10.2,8.2,18.4,18.4,18.4c10.1,0,18.4-8.2,18.4-18.4
				C276.6,39.5,268.4,31.3,258.2,31.3z M258.2,58.6c-5,0-9-4-9-9c0-5,4-9,9-9c5,0,9,4,9,9C267.2,54.6,263.2,58.6,258.2,58.6z"/>
		</g>
		<g>
			<path d="M297.7,58.6c-5,0-9-4-9-9c0-5,4.1-9,9-9c3.7,0,6.9,2.2,8.3,5.3l9-2.4c-2.5-7.2-9.3-12.3-17.3-12.3
				c-10.2,0-18.4,8.2-18.4,18.4c0,10.2,8.2,18.4,18.4,18.4c7.9,0,14.7-5,17.3-12.1l-9.1-2.4C304.5,56.5,301.3,58.6,297.7,58.6z"/>
		</g>
	</g>
	<g>
		<g>
			<linearGradient id="SVGID_14_" gradientUnits="userSpaceOnUse" x1="258.7675" y1="48.5881" x2="574.5833" y2="48.5881">
				<stop  offset="0" style="stop-color:#006537"/>
				<stop  offset="0.33" style="stop-color:#008A40"/>
				<stop  offset="0.66" style="stop-color:#36AC47"/>
				<stop  offset="1" style="stop-color:#9AC341"/>
			</linearGradient>
			<path class="st14" d="M360.8,55.5c-0.2,2.6-1.1,4.8-2.5,6.8c-1.5,2-3.4,3.5-5.8,4.6c-2.4,1.1-5,1.6-7.7,1.5
				c-3.8-0.1-6.8-1.3-9-3.7c-2.2-2.4-3.4-5.6-3.6-9.7c-0.2-2.7,0.1-5.7,0.9-8.9c0.7-3.2,2-6,3.6-8.4c1.7-2.4,3.7-4.1,6-5.3
				s4.8-1.7,7.5-1.7c4,0.1,7.1,1.3,9.5,3.6c2.3,2.3,3.6,5.5,3.8,9.6l-8.6,0c0-2.2-0.4-3.8-1.2-4.8c-0.8-1-2.2-1.5-4-1.5
				c-4.5-0.2-7.3,3.4-8.3,10.6c-0.5,3.2-0.7,5.6-0.7,7c-0.1,4.1,1.4,6.2,4.6,6.4c2,0.1,3.6-0.4,4.8-1.5c1.2-1.1,2-2.6,2.3-4.5
				L360.8,55.5z"/>
			<linearGradient id="SVGID_15_" gradientUnits="userSpaceOnUse" x1="258.7675" y1="48.5881" x2="574.5833" y2="48.5881">
				<stop  offset="0" style="stop-color:#006537"/>
				<stop  offset="0.33" style="stop-color:#008A40"/>
				<stop  offset="0.66" style="stop-color:#36AC47"/>
				<stop  offset="1" style="stop-color:#9AC341"/>
			</linearGradient>
			<path class="st15" d="M376.3,68.4c-2.4,0-4.6-0.6-6.5-1.7c-1.9-1.1-3.3-2.7-4.3-4.7c-1-2-1.4-4.2-1.2-6.7l0.1-0.7
				c0.5-4.5,2-8,4.7-10.6c2.7-2.6,5.9-3.9,9.8-3.8c2.3,0,4.3,0.6,6,1.8c1.7,1.1,2.9,2.7,3.6,4.8c0.8,2,1,4.3,0.8,6.8l-0.5,3.4h-16.2
				c0,1.4,0.4,2.6,1.2,3.5c0.8,0.9,1.9,1.4,3.4,1.4c2.4,0.1,4.5-0.9,6.5-2.8l3.5,4.6c-1,1.5-2.4,2.6-4.3,3.4c-1.8,0.8-3.8,1.3-6,1.3
				H376.3z M378.3,46.8c-1.2,0-2.2,0.3-3.1,1.1c-0.9,0.8-1.6,2-2.2,3.8h8.3l0.2-0.7c0.1-0.6,0.1-1.1,0.1-1.6
				C381.2,47.7,380.1,46.8,378.3,46.8z"/>
			<linearGradient id="SVGID_16_" gradientUnits="userSpaceOnUse" x1="258.7675" y1="48.5881" x2="574.5833" y2="48.5881">
				<stop  offset="0" style="stop-color:#006537"/>
				<stop  offset="0.33" style="stop-color:#008A40"/>
				<stop  offset="0.66" style="stop-color:#36AC47"/>
				<stop  offset="1" style="stop-color:#9AC341"/>
			</linearGradient>
			<path class="st16" d="M409.8,48.4c-0.9-0.1-1.7-0.2-2.6-0.3c-2.5-0.1-4.4,0.8-5.7,2.6l-3.1,17.2h-8.3l4.7-27.2l7.7,0l-0.6,3.6
				c1.8-2.7,3.9-4.1,6.3-4.1c0.7,0,1.5,0.1,2.6,0.4L409.8,48.4z"/>
			<linearGradient id="SVGID_17_" gradientUnits="userSpaceOnUse" x1="258.7675" y1="48.5881" x2="574.5833" y2="48.5881">
				<stop  offset="0" style="stop-color:#006537"/>
				<stop  offset="0.33" style="stop-color:#008A40"/>
				<stop  offset="0.66" style="stop-color:#36AC47"/>
				<stop  offset="1" style="stop-color:#9AC341"/>
			</linearGradient>
			<path class="st17" d="M424.8,34l-1.2,6.8h4.3l-1,5.9h-4.3l-2.1,12.5c-0.1,0.9-0.1,1.5,0.2,1.9c0.2,0.4,0.8,0.7,1.7,0.7
				c0.4,0,1.1,0,2.2-0.1l-0.6,6.1c-1.4,0.5-2.9,0.7-4.4,0.6c-2.6,0-4.5-0.8-5.8-2.3s-1.8-3.5-1.6-6l2.2-13.5H411l1-5.9h3.4l1.2-6.8
				H424.8z"/>
			<linearGradient id="SVGID_18_" gradientUnits="userSpaceOnUse" x1="258.7675" y1="48.5881" x2="574.5833" y2="48.5881">
				<stop  offset="0" style="stop-color:#006537"/>
				<stop  offset="0.33" style="stop-color:#008A40"/>
				<stop  offset="0.66" style="stop-color:#36AC47"/>
				<stop  offset="1" style="stop-color:#9AC341"/>
			</linearGradient>
			<path class="st18" d="M435.4,67.9h-8.3l4.7-27.2h8.3L435.4,67.9z M432.6,33.9c0-1.2,0.4-2.2,1.3-3.1c0.9-0.8,2-1.2,3.3-1.2
				c1.3,0,2.4,0.4,3.2,1.1c0.9,0.7,1.3,1.7,1.3,2.9c0,1.2-0.4,2.3-1.3,3.1s-2,1.2-3.3,1.2c-1.3,0-2.3-0.4-3.2-1.1
				C433.1,36.1,432.6,35.1,432.6,33.9z"/>
			<linearGradient id="SVGID_19_" gradientUnits="userSpaceOnUse" x1="258.7675" y1="48.5881" x2="574.5833" y2="48.5881">
				<stop  offset="0" style="stop-color:#006537"/>
				<stop  offset="0.33" style="stop-color:#008A40"/>
				<stop  offset="0.66" style="stop-color:#36AC47"/>
				<stop  offset="1" style="stop-color:#9AC341"/>
			</linearGradient>
			<path class="st19" d="M442.5,67.9l3.7-21.3h-3.8l1-5.9l3.8,0l0.3-2.4c0.4-2.9,1.6-5.2,3.5-6.9c2-1.8,4.7-2.7,7.9-2.7
				c0.8,0,2.2,0.2,4.1,0.6l-0.6,6.3c-0.8-0.2-1.4-0.3-2-0.3c-1.2,0-2.2,0.3-3,0.8c-0.8,0.6-1.3,1.4-1.5,2.4l-0.4,2.2h5.1l-1,5.9
				h-5.1l-3.7,21.3H442.5z"/>
			<linearGradient id="SVGID_20_" gradientUnits="userSpaceOnUse" x1="258.7675" y1="48.5881" x2="574.5833" y2="48.5881">
				<stop  offset="0" style="stop-color:#006537"/>
				<stop  offset="0.33" style="stop-color:#008A40"/>
				<stop  offset="0.66" style="stop-color:#36AC47"/>
				<stop  offset="1" style="stop-color:#9AC341"/>
			</linearGradient>
			<path class="st20" d="M467.8,67.9h-8.3l4.7-27.2h8.3L467.8,67.9z M464.9,33.9c0-1.2,0.4-2.2,1.3-3.1c0.9-0.8,2-1.2,3.3-1.2
				c1.3,0,2.4,0.4,3.2,1.1c0.9,0.7,1.3,1.7,1.3,2.9c0,1.2-0.4,2.3-1.3,3.1s-2,1.2-3.3,1.2c-1.3,0-2.3-0.4-3.2-1.1
				C465.4,36.1,464.9,35.1,464.9,33.9z"/>
			<linearGradient id="SVGID_21_" gradientUnits="userSpaceOnUse" x1="258.7675" y1="48.5881" x2="574.5833" y2="48.5881">
				<stop  offset="0" style="stop-color:#006537"/>
				<stop  offset="0.33" style="stop-color:#008A40"/>
				<stop  offset="0.66" style="stop-color:#36AC47"/>
				<stop  offset="1" style="stop-color:#9AC341"/>
			</linearGradient>
			<path class="st21" d="M485.6,61.9c1.2,0,2.1-0.3,2.8-1s1.1-1.6,1.3-2.7l7.7,0c-0.1,2-0.7,3.8-1.8,5.4c-1.1,1.6-2.5,2.8-4.4,3.7
				c-1.8,0.9-3.8,1.3-5.9,1.2c-3.6-0.1-6.4-1.4-8.4-3.9c-2-2.5-2.8-5.8-2.4-9.8l0.1-0.6c0.3-2.7,1.1-5.2,2.3-7.3
				c1.2-2.1,2.9-3.8,4.9-4.9c2-1.2,4.3-1.7,6.8-1.6c3.2,0.1,5.7,1.1,7.5,3c1.8,2,2.7,4.6,2.6,7.9l-7.7,0c0.1-2.9-0.9-4.3-3.1-4.4
				c-2.9-0.1-4.6,2.3-5,7.3l-0.2,2.6l0,1C482.7,60.4,483.7,61.8,485.6,61.9z"/>
			<linearGradient id="SVGID_22_" gradientUnits="userSpaceOnUse" x1="258.7675" y1="48.5881" x2="574.5833" y2="48.5881">
				<stop  offset="0" style="stop-color:#006537"/>
				<stop  offset="0.33" style="stop-color:#008A40"/>
				<stop  offset="0.66" style="stop-color:#36AC47"/>
				<stop  offset="1" style="stop-color:#9AC341"/>
			</linearGradient>
			<path class="st22" d="M514.5,67.9c-0.2-0.7-0.4-1.5-0.4-2.5c-1.9,2-4.1,3-6.7,3c-2.4,0-4.3-0.8-5.9-2.4s-2.3-3.4-2.2-5.6
				c0.1-2.9,1.3-5.2,3.7-6.8c2.4-1.6,5.6-2.4,9.7-2.4l2.8,0.1l0.3-1.5l0.1-1.3c-0.1-1.5-0.8-2.3-2.3-2.4c-1.8,0-2.9,1-3.3,3l-8.3,0
				c0.1-1.8,0.7-3.4,1.8-4.8c1.1-1.3,2.6-2.4,4.5-3.1c1.9-0.7,3.9-1.1,6.1-1c2.1,0.1,3.9,0.5,5.4,1.3s2.7,1.9,3.5,3.4s1.1,3.1,0.9,5
				l-2,12.8l-0.1,1.6c-0.1,1.2,0.1,2.3,0.5,3.2l0,0.5H514.5z M509.8,62.4c1.7,0.1,3.2-0.7,4.4-2.2l0.8-4.4l-2.1,0
				c-1.3,0-2.5,0.4-3.4,1.2c-1,0.7-1.5,1.8-1.7,3.1c-0.1,0.7,0,1.3,0.4,1.7C508.6,62.2,509.1,62.4,509.8,62.4z"/>
			<linearGradient id="SVGID_23_" gradientUnits="userSpaceOnUse" x1="258.7675" y1="48.5881" x2="574.5833" y2="48.5881">
				<stop  offset="0" style="stop-color:#006537"/>
				<stop  offset="0.33" style="stop-color:#008A40"/>
				<stop  offset="0.66" style="stop-color:#36AC47"/>
				<stop  offset="1" style="stop-color:#9AC341"/>
			</linearGradient>
			<path class="st23" d="M541.4,34l-1.2,6.8h4.3l-1,5.9h-4.3l-2.1,12.5c-0.1,0.9-0.1,1.5,0.2,1.9c0.2,0.4,0.8,0.7,1.7,0.7
				c0.4,0,1.1,0,2.2-0.1l-0.6,6.1c-1.4,0.5-2.9,0.7-4.4,0.6c-2.6,0-4.5-0.8-5.8-2.3s-1.8-3.5-1.6-6l2.2-13.5h-3.4l1-5.9h3.4l1.2-6.8
				H541.4z"/>
			<linearGradient id="SVGID_24_" gradientUnits="userSpaceOnUse" x1="258.7675" y1="48.5881" x2="574.5833" y2="48.5881">
				<stop  offset="0" style="stop-color:#006537"/>
				<stop  offset="0.33" style="stop-color:#008A40"/>
				<stop  offset="0.66" style="stop-color:#36AC47"/>
				<stop  offset="1" style="stop-color:#9AC341"/>
			</linearGradient>
			<path class="st24" d="M556.8,68.4c-2.4,0-4.6-0.6-6.5-1.7c-1.9-1.1-3.3-2.7-4.3-4.7c-1-2-1.4-4.2-1.2-6.7l0.1-0.7
				c0.5-4.5,2-8,4.7-10.6c2.7-2.6,5.9-3.9,9.8-3.8c2.3,0,4.3,0.6,6,1.8c1.7,1.1,2.9,2.7,3.6,4.8c0.8,2,1,4.3,0.8,6.8l-0.5,3.4h-16.2
				c0,1.4,0.4,2.6,1.2,3.5c0.8,0.9,1.9,1.4,3.4,1.4c2.4,0.1,4.5-0.9,6.5-2.8l3.5,4.6c-1,1.5-2.4,2.6-4.3,3.4c-1.8,0.8-3.8,1.3-6,1.3
				H556.8z M558.8,46.8c-1.2,0-2.2,0.3-3.1,1.1c-0.9,0.8-1.6,2-2.2,3.8h8.3l0.2-0.7c0.1-0.6,0.1-1.1,0.1-1.6
				C561.7,47.7,560.6,46.8,558.8,46.8z"/>
			<linearGradient id="SVGID_25_" gradientUnits="userSpaceOnUse" x1="258.7675" y1="48.5881" x2="574.5833" y2="48.5881">
				<stop  offset="0" style="stop-color:#006537"/>
				<stop  offset="0.33" style="stop-color:#008A40"/>
				<stop  offset="0.66" style="stop-color:#36AC47"/>
				<stop  offset="1" style="stop-color:#9AC341"/>
			</linearGradient>
			<path class="st25" d="M586,60.1c0.2-1.1-0.6-1.9-2.6-2.5l-1.8-0.5c-2.9-0.8-5-1.8-6.4-3.2c-1.4-1.4-2-3-1.9-4.9
				c0.1-2.6,1.2-4.7,3.5-6.4s5-2.4,8.2-2.4c3.2,0,5.8,0.8,7.8,2.4c2,1.6,3,3.7,3,6.4l-8.2,0c0.1-2.1-0.9-3.2-2.8-3.2
				c-0.8,0-1.6,0.2-2.3,0.7c-0.7,0.5-1.1,1.2-1.3,2c-0.3,1.4,0.9,2.3,3.6,2.8c2.3,0.6,4.1,1.2,5.4,1.9c1.3,0.7,2.2,1.6,2.9,2.7
				c0.7,1.1,1,2.4,0.9,3.9c0,1.6-0.6,3.1-1.6,4.4c-1,1.3-2.5,2.3-4.4,3.1c-1.9,0.8-4,1.1-6.3,1.1c-2,0-3.8-0.4-5.5-1.2
				c-1.7-0.8-3-1.9-3.9-3.3c-0.9-1.4-1.4-3-1.5-4.8l7.7,0c0,2.4,1.2,3.6,3.6,3.6c1,0,1.9-0.2,2.6-0.7C585.4,61.6,585.9,61,586,60.1z
				"/>
		</g>
	</g>
</g>
</svg>
